<mxfile host="app.diagrams.net" agent="Mozilla/5.0 (Windows NT 10.0; Win64; x64) AppleWebKit/537.36 (KHTML, like Gecko) Chrome/138.0.0.0 YaBrowser/25.8.0.0 Safari/537.36" version="28.2.5">
  <diagram name="Storm Warning System Architecture" id="storm-arch">
    <mxGraphModel dx="947" dy="520" grid="1" gridSize="10" guides="1" tooltips="1" connect="1" arrows="1" fold="1" page="1" pageScale="1" pageWidth="1169" pageHeight="827" math="0" shadow="0">
      <root>
        <mxCell id="0" />
        <mxCell id="1" parent="0" />
        <mxCell id="kqFPRBj9vnxbcJkj2zn6-2" style="edgeStyle=orthogonalEdgeStyle;rounded=0;orthogonalLoop=1;jettySize=auto;html=1;entryX=0.5;entryY=1;entryDx=0;entryDy=0;" edge="1" parent="1" source="uM8BB33pZ_aGKLbS4g4Y-1" target="uM8BB33pZ_aGKLbS4g4Y-2">
          <mxGeometry relative="1" as="geometry" />
        </mxCell>
        <mxCell id="uM8BB33pZ_aGKLbS4g4Y-1" value="Open-Meteo API&lt;div&gt;(Источник данных)&lt;/div&gt;" style="shape=cylinder3;whiteSpace=wrap;html=1;boundedLbl=1;backgroundOutline=1;size=15;" parent="1" vertex="1">
          <mxGeometry x="450" y="435" width="150" height="90" as="geometry" />
        </mxCell>
        <mxCell id="kqFPRBj9vnxbcJkj2zn6-3" style="edgeStyle=orthogonalEdgeStyle;rounded=0;orthogonalLoop=1;jettySize=auto;html=1;" edge="1" parent="1" source="uM8BB33pZ_aGKLbS4g4Y-2" target="uM8BB33pZ_aGKLbS4g4Y-6">
          <mxGeometry relative="1" as="geometry" />
        </mxCell>
        <mxCell id="kqFPRBj9vnxbcJkj2zn6-5" style="edgeStyle=orthogonalEdgeStyle;rounded=0;orthogonalLoop=1;jettySize=auto;html=1;" edge="1" parent="1" source="uM8BB33pZ_aGKLbS4g4Y-2" target="uM8BB33pZ_aGKLbS4g4Y-10">
          <mxGeometry relative="1" as="geometry" />
        </mxCell>
        <mxCell id="uM8BB33pZ_aGKLbS4g4Y-2" value="Модуль загрузки и предобработки данных" style="rounded=0;whiteSpace=wrap;html=1;" parent="1" vertex="1">
          <mxGeometry x="445" y="282.5" width="160" height="75" as="geometry" />
        </mxCell>
        <mxCell id="uM8BB33pZ_aGKLbS4g4Y-4" value="Хранилище данных&lt;br&gt;(CSV / База данных)" style="shape=cylinder3;whiteSpace=wrap;html=1;boundedLbl=1;backgroundOutline=1;size=15;" parent="1" vertex="1">
          <mxGeometry x="210" y="200" width="150" height="90" as="geometry" />
        </mxCell>
        <mxCell id="kqFPRBj9vnxbcJkj2zn6-6" style="edgeStyle=orthogonalEdgeStyle;rounded=0;orthogonalLoop=1;jettySize=auto;html=1;" edge="1" parent="1" source="uM8BB33pZ_aGKLbS4g4Y-6" target="uM8BB33pZ_aGKLbS4g4Y-10">
          <mxGeometry relative="1" as="geometry" />
        </mxCell>
        <mxCell id="uM8BB33pZ_aGKLbS4g4Y-6" value="Модуль анализа и ML-модель" style="rounded=0;whiteSpace=wrap;html=1;" parent="1" vertex="1">
          <mxGeometry x="435" y="120" width="180" height="80" as="geometry" />
        </mxCell>
        <mxCell id="uM8BB33pZ_aGKLbS4g4Y-10" value="Модуль визуализации и отчетности" style="rounded=0;whiteSpace=wrap;html=1;" parent="1" vertex="1">
          <mxGeometry x="680" y="280" width="170" height="80" as="geometry" />
        </mxCell>
        <mxCell id="uM8BB33pZ_aGKLbS4g4Y-12" value="Пользователь&lt;br&gt;(Аналитик / Интерфейс)" style="ellipse;whiteSpace=wrap;html=1;" parent="1" vertex="1">
          <mxGeometry x="170" y="440" width="190" height="80" as="geometry" />
        </mxCell>
        <mxCell id="kqFPRBj9vnxbcJkj2zn6-1" style="edgeStyle=orthogonalEdgeStyle;rounded=0;orthogonalLoop=1;jettySize=auto;html=1;entryX=0;entryY=0.5;entryDx=0;entryDy=0;entryPerimeter=0;" edge="1" parent="1" source="uM8BB33pZ_aGKLbS4g4Y-12" target="uM8BB33pZ_aGKLbS4g4Y-1">
          <mxGeometry relative="1" as="geometry" />
        </mxCell>
        <mxCell id="kqFPRBj9vnxbcJkj2zn6-7" style="edgeStyle=orthogonalEdgeStyle;rounded=0;orthogonalLoop=1;jettySize=auto;html=1;entryX=1;entryY=0.5;entryDx=0;entryDy=0;entryPerimeter=0;" edge="1" parent="1" source="uM8BB33pZ_aGKLbS4g4Y-6" target="uM8BB33pZ_aGKLbS4g4Y-4">
          <mxGeometry relative="1" as="geometry" />
        </mxCell>
        <mxCell id="kqFPRBj9vnxbcJkj2zn6-8" style="edgeStyle=orthogonalEdgeStyle;rounded=0;orthogonalLoop=1;jettySize=auto;html=1;entryX=0.5;entryY=1;entryDx=0;entryDy=0;entryPerimeter=0;" edge="1" parent="1" source="uM8BB33pZ_aGKLbS4g4Y-2" target="uM8BB33pZ_aGKLbS4g4Y-4">
          <mxGeometry relative="1" as="geometry" />
        </mxCell>
      </root>
    </mxGraphModel>
  </diagram>
</mxfile>
